<svg width="40" height="40" viewBox="0 0 256 256" fill="none" xmlns="http://www.w3.org/2000/svg">
<path d="M128 213C157.5 213 181.1 200 198.8 175.2C198.8 164.6 190.5 156.3 174 149.2C157.5 142.1 142.1 138.6 128 138.6C113.9 138.6 98.5 142.1 82 149.2C65.5 156.3 57.2 164.5 57.2 175.2C74.9 200 98.5 213 128 213ZM128 45.4C118.6 45.4 110.3 48.9 103.2 56C96.1 63.1 92.6 71.3 92.6 80.8C92.6 90.2 96.1 98.5 103.2 105.6C110.3 112.7 118.5 116.2 128 116.2C137.4 116.2 145.7 112.7 152.8 105.6C159.9 98.5 163.4 90.3 163.4 80.8C163.4 71.4 159.9 63.1 152.8 56C146.9 48.9 138.6 45.4 128 45.4ZM128 10C161 10 188.2 21.8 211.8 44.2C235.4 67.8 246 95 246 128C246 161 234.2 188.2 211.8 211.8C188.2 235.4 161 246 128 246C95 246 67.8 234.2 44.2 211.8C20.6 188.2 10 161 10 128C10 95 21.8 67.8 44.2 44.2C67.8 21.8 96.1 10 128 10Z" 
fill="#D48201"/>
</svg>
